<svg version="1.1" xmlns="http://www.w3.org/2000/svg" xmlns:xlink="http://www.w3.org/1999/xlink" width="14.1351" height="15.20291" viewBox="0,0,14.1351,15.20291"><g transform="translate(-329.87746,-153.4056)"><g data-paper-data="{&quot;isPaintingLayer&quot;:true}" fill="#ff0000" fill-rule="nonzero" stroke="none" stroke-width="0.5" stroke-linecap="butt" stroke-linejoin="miter" stroke-miterlimit="10" stroke-dasharray="" stroke-dashoffset="0" style="mix-blend-mode: normal"><g><path d="M339.18603,157.64099c1.3573,-0.34418 2.73662,0.47711 3.0808,1.83441c0.33062,1.30382 -0.4142,2.62797 -1.67651,3.03537c0.88635,3.65424 -3.5035,8.15861 -6.61603,5.06696c-0.52332,-0.51981 -0.87341,-1.10323 -1.07781,-1.71955c-1.28291,0.20755 -2.53418,-0.59667 -2.85968,-1.88027c-0.34418,-1.3573 0.47711,-2.73662 1.83441,-3.0808c0.35036,-0.08884 0.70219,-0.10004 1.0373,-0.04439c0.1508,-0.16266 0.32375,-0.30643 0.51572,-0.42611c1.17271,-1.7358 3.00187,-3.11039 4.1455,-1.7107c0.02991,0.0127 0.05958,0.02596 0.08896,0.03978c0.33416,-0.53527 0.86738,-0.94734 1.52733,-1.11469z"/><path d="M341.35034,165.58046c0,-0.73515 0.59596,-1.33111 1.33111,-1.33111c0.73515,0 1.33111,0.59596 1.33111,1.33111c0,0.73515 -0.59596,1.33111 -1.33111,1.33111c-0.73515,0 -1.33111,-0.59596 -1.33111,-1.33111z"/><path d="M329.87746,155.9056c0,-1.38071 1.11929,-2.5 2.5,-2.5c1.38071,0 2.5,1.11929 2.5,2.5c0,1.38071 -1.11929,2.5 -2.5,2.5c-1.38071,0 -2.5,-1.11929 -2.5,-2.5z"/></g></g></g></svg>